<svg id="visual" viewBox="0 0 900 600" width="900" height="600" xmlns="http://www.w3.org/2000/svg" xmlns:xlink="http://www.w3.org/1999/xlink" version="1.1"><rect x="0" y="0" width="1800" height="600" fill="#ffffff"></rect><path d="M0 311L37.5 317.8C75 324.7 150 338.3 225 338.8C300 339.3 375 326.7 450 325.7C525 324.7 600 335.3 675 337.2C750 339 825 332 862.5 328.5L900 325L900 601L862.5 601C825 601 750 601 675 601C600 601 525 601 450 601C375 601 300 601 225 601C150 601 75 601 37.5 601L0 601Z" fill="#7E45E2" stroke-linecap="round" stroke-linejoin="miter"></path></svg>